#Comment line ignore any data following # character 
#Hierarchical Translation and Rotation (.htr) file 
[Header]	
#Header keywords are followed by a single value 
FileType HTR		#Single word string
DataType HTRS		#Translation followed by rotation and scale data
FileVersion 1		#integer
NumSegments 84		#integer
NumFrames 2		#integer
DataFrameRate 30		#integer, data frame rate in this file
EulerRotationOrder ZYX
CalibrationUnits mm
RotationUnits Degrees
GlobalAxisofGravity Y
BoneLengthAxis Y
ScaleFactor 1.00
[SegmentNames&Hierarchy]
#CHILD	PARENT
MASTER GLOBAL
root MASTER
chest root
L_mid_tent01 root
R_mid_tent01 root
spine01 root
Bip01_Neck chest
L_humerus chest
R_humerus chest
weapon_bone chest
Bip01_Head Bip01_Neck
eye_left_bone Bip01_Head
eye_right_bone Bip01_Head
L_forearm L_humerus
L_front_hand L_forearm
L_weapon_bone L_forearm
L_front_hand01_01 L_front_hand
L_front_hand02_01 L_front_hand
L_front_hand03_01 L_front_hand
L_front_hand01_02 L_front_hand01_01
L_front_hand02_02 L_front_hand02_01
L_front_hand03_02 L_front_hand03_01
R_forearm R_humerus
R_front_hand R_forearm
R_weapon_bone R_forearm
R_front_hand01_01 R_front_hand
R_front_hand02_01 R_front_hand
R_front_hand03_01 R_front_hand
R_front_hand01_02 R_front_hand01_01
R_front_hand02_02 R_front_hand02_01
R_front_hand03_02 R_front_hand03_01
null_rope01_connect L_mid_tent01
Rope1_Seg01 null_rope01_connect
Rope1_Seg02 Rope1_Seg01
Rope1_Seg03 Rope1_Seg02
Rope1_Seg04 Rope1_Seg03
Rope1_Seg05 Rope1_Seg04
Rope1_Seg06 Rope1_Seg05
Rope1_Seg07 Rope1_Seg06
Rope1_Seg09 Rope1_Seg07
L_mid_hand01 Rope1_Seg09
L_mid_hand02 Rope1_Seg09
L_mid_hand03 Rope1_Seg09
null_rope02_connect R_mid_tent01
Rope2_Seg01 null_rope02_connect
Rope2_Seg02 Rope2_Seg01
Rope2_Seg03 Rope2_Seg02
Rope2_Seg04 Rope2_Seg03
Rope2_Seg05 Rope2_Seg04
Rope2_Seg06 Rope2_Seg05
Rope2_Seg07 Rope2_Seg06
Rope2_Seg09 Rope2_Seg07
R_mid_hand01 Rope2_Seg09
R_mid_hand02 Rope2_Seg09
R_mid_hand03 Rope2_Seg09
spine02 spine01
spine03 spine02
pelvis spine03
null_rope03_connect pelvis
null_rope04_connect pelvis
Rope3_Seg01 null_rope03_connect
Rope3_Seg02 Rope3_Seg01
Rope3_Seg03 Rope3_Seg02
Rope3_Seg04 Rope3_Seg03
Rope3_Seg05 Rope3_Seg04
Rope3_Seg06 Rope3_Seg05
Rope3_Seg07 Rope3_Seg06
Rope3_Seg08 Rope3_Seg07
Rope3_Seg09 Rope3_Seg08
R_rear_hand01 Rope3_Seg09
R_rear_hand02 Rope3_Seg09
R_rear_hand03 Rope3_Seg09
Rope4_Seg01 null_rope04_connect
Rope4_Seg02 Rope4_Seg01
Rope4_Seg03 Rope4_Seg02
Rope4_Seg04 Rope4_Seg03
Rope4_Seg05 Rope4_Seg04
Rope4_Seg06 Rope4_Seg05
Rope4_Seg07 Rope4_Seg06
Rope4_Seg08 Rope4_Seg07
Rope4_Seg09 Rope4_Seg08
L_rear_hand01 Rope4_Seg09
L_rear_hand02 Rope4_Seg09
L_rear_hand03 Rope4_Seg09
[BasePosition]
#SegmentName Tx, Ty, Tz, Rx, Ry, Rz, BoneLength
MASTER 0.000000 0.000000 0.000000 -90.000000 0.000000 0.000000 10.000000 
root 0.000000 0.000000 0.000000 0.000000 0.000000 0.000000 10.000000 
chest 0.000000 0.000000 0.000000 0.000000 0.000000 0.000000 10.000000 
L_mid_tent01 0.000000 0.000000 0.000000 0.000000 0.000000 0.000000 10.000000 
R_mid_tent01 0.000000 0.000000 0.000000 0.000000 0.000000 0.000000 10.000000 
spine01 0.000000 0.000000 0.000000 0.000000 0.000000 0.000000 10.000000 
Bip01_Neck 0.000000 0.000000 0.000000 0.000000 0.000000 0.000000 10.000000 
L_humerus 0.000000 0.000000 0.000000 0.000000 0.000000 0.000000 10.000000 
R_humerus 0.000000 0.000000 0.000000 0.000000 0.000000 0.000000 10.000000 
weapon_bone 0.000000 0.000000 0.000000 0.000000 0.000000 0.000000 10.000000 
Bip01_Head 0.000000 0.000000 0.000000 0.000000 0.000000 0.000000 10.000000 
eye_left_bone 0.000000 0.000000 0.000000 0.000000 0.000000 0.000000 10.000000 
eye_right_bone 0.000000 0.000000 0.000000 0.000000 0.000000 0.000000 10.000000 
L_forearm 0.000000 0.000000 0.000000 0.000000 0.000000 0.000000 10.000000 
L_front_hand 0.000000 0.000000 0.000000 0.000000 0.000000 0.000000 10.000000 
L_weapon_bone 0.000000 0.000000 0.000000 0.000000 0.000000 0.000000 10.000000 
L_front_hand01_01 0.000000 0.000000 0.000000 0.000000 0.000000 0.000000 10.000000 
L_front_hand02_01 0.000000 0.000000 0.000000 0.000000 0.000000 0.000000 10.000000 
L_front_hand03_01 0.000000 0.000000 0.000000 0.000000 0.000000 0.000000 10.000000 
L_front_hand01_02 0.000000 0.000000 0.000000 0.000000 0.000000 0.000000 10.000000 
L_front_hand02_02 0.000000 0.000000 0.000000 0.000000 0.000000 0.000000 10.000000 
L_front_hand03_02 0.000000 0.000000 0.000000 0.000000 0.000000 0.000000 10.000000 
R_forearm 0.000000 0.000000 0.000000 0.000000 0.000000 0.000000 10.000000 
R_front_hand 0.000000 0.000000 0.000000 0.000000 0.000000 0.000000 10.000000 
R_weapon_bone 0.000000 0.000000 0.000000 0.000000 0.000000 0.000000 10.000000 
R_front_hand01_01 0.000000 0.000000 0.000000 0.000000 0.000000 0.000000 10.000000 
R_front_hand02_01 0.000000 0.000000 0.000000 0.000000 0.000000 0.000000 10.000000 
R_front_hand03_01 0.000000 0.000000 0.000000 0.000000 0.000000 0.000000 10.000000 
R_front_hand01_02 0.000000 0.000000 0.000000 0.000000 0.000000 0.000000 10.000000 
R_front_hand02_02 0.000000 0.000000 0.000000 0.000000 0.000000 0.000000 10.000000 
R_front_hand03_02 0.000000 0.000000 0.000000 0.000000 0.000000 0.000000 10.000000 
null_rope01_connect 0.000000 0.000000 0.000000 0.000000 0.000000 0.000000 10.000000 
Rope1_Seg01 0.000000 0.000000 0.000000 0.000000 0.000000 0.000000 10.000000 
Rope1_Seg02 0.000000 0.000000 0.000000 0.000000 0.000000 0.000000 10.000000 
Rope1_Seg03 0.000000 0.000000 0.000000 0.000000 0.000000 0.000000 10.000000 
Rope1_Seg04 0.000000 0.000000 0.000000 0.000000 0.000000 0.000000 10.000000 
Rope1_Seg05 0.000000 0.000000 0.000000 0.000000 0.000000 0.000000 10.000000 
Rope1_Seg06 0.000000 0.000000 0.000000 0.000000 0.000000 0.000000 10.000000 
Rope1_Seg07 0.000000 0.000000 0.000000 0.000000 0.000000 0.000000 10.000000 
Rope1_Seg09 0.000000 0.000000 0.000000 0.000000 0.000000 0.000000 10.000000 
L_mid_hand01 0.000000 0.000000 0.000000 0.000000 0.000000 0.000000 10.000000 
L_mid_hand02 0.000000 0.000000 0.000000 0.000000 0.000000 0.000000 10.000000 
L_mid_hand03 0.000000 0.000000 0.000000 0.000000 0.000000 0.000000 10.000000 
null_rope02_connect 0.000000 0.000000 0.000000 0.000000 0.000000 0.000000 10.000000 
Rope2_Seg01 0.000000 0.000000 0.000000 0.000000 0.000000 0.000000 10.000000 
Rope2_Seg02 0.000000 0.000000 0.000000 0.000000 0.000000 0.000000 10.000000 
Rope2_Seg03 0.000000 0.000000 0.000000 0.000000 0.000000 0.000000 10.000000 
Rope2_Seg04 0.000000 0.000000 0.000000 0.000000 0.000000 0.000000 10.000000 
Rope2_Seg05 0.000000 0.000000 0.000000 0.000000 0.000000 0.000000 10.000000 
Rope2_Seg06 0.000000 0.000000 0.000000 0.000000 0.000000 0.000000 10.000000 
Rope2_Seg07 0.000000 0.000000 0.000000 0.000000 0.000000 0.000000 10.000000 
Rope2_Seg09 0.000000 0.000000 0.000000 0.000000 0.000000 0.000000 10.000000 
R_mid_hand01 0.000000 0.000000 0.000000 0.000000 0.000000 0.000000 10.000000 
R_mid_hand02 0.000000 0.000000 0.000000 0.000000 0.000000 0.000000 10.000000 
R_mid_hand03 0.000000 0.000000 0.000000 0.000000 0.000000 0.000000 10.000000 
spine02 0.000000 0.000000 0.000000 0.000000 0.000000 0.000000 10.000000 
spine03 0.000000 0.000000 0.000000 0.000000 0.000000 0.000000 10.000000 
pelvis 0.000000 0.000000 0.000000 0.000000 0.000000 0.000000 10.000000 
null_rope03_connect 0.000000 0.000000 0.000000 0.000000 0.000000 0.000000 10.000000 
null_rope04_connect 0.000000 0.000000 0.000000 0.000000 0.000000 0.000000 10.000000 
Rope3_Seg01 0.000000 0.000000 0.000000 0.000000 0.000000 0.000000 10.000000 
Rope3_Seg02 0.000000 0.000000 0.000000 0.000000 0.000000 0.000000 10.000000 
Rope3_Seg03 0.000000 0.000000 0.000000 0.000000 0.000000 0.000000 10.000000 
Rope3_Seg04 0.000000 0.000000 0.000000 0.000000 0.000000 0.000000 10.000000 
Rope3_Seg05 0.000000 0.000000 0.000000 0.000000 0.000000 0.000000 10.000000 
Rope3_Seg06 0.000000 0.000000 0.000000 0.000000 0.000000 0.000000 10.000000 
Rope3_Seg07 0.000000 0.000000 0.000000 0.000000 0.000000 0.000000 10.000000 
Rope3_Seg08 0.000000 0.000000 0.000000 0.000000 0.000000 0.000000 10.000000 
Rope3_Seg09 0.000000 0.000000 0.000000 0.000000 0.000000 0.000000 10.000000 
R_rear_hand01 0.000000 0.000000 0.000000 0.000000 0.000000 0.000000 10.000000 
R_rear_hand02 0.000000 0.000000 0.000000 0.000000 0.000000 0.000000 10.000000 
R_rear_hand03 0.000000 0.000000 0.000000 0.000000 0.000000 0.000000 10.000000 
Rope4_Seg01 0.000000 0.000000 0.000000 0.000000 0.000000 0.000000 10.000000 
Rope4_Seg02 0.000000 0.000000 0.000000 0.000000 0.000000 0.000000 10.000000 
Rope4_Seg03 0.000000 0.000000 0.000000 0.000000 0.000000 0.000000 10.000000 
Rope4_Seg04 0.000000 0.000000 0.000000 0.000000 0.000000 0.000000 10.000000 
Rope4_Seg05 0.000000 0.000000 0.000000 0.000000 0.000000 0.000000 10.000000 
Rope4_Seg06 0.000000 0.000000 0.000000 0.000000 0.000000 0.000000 10.000000 
Rope4_Seg07 0.000000 0.000000 0.000000 0.000000 0.000000 0.000000 10.000000 
Rope4_Seg08 0.000000 0.000000 0.000000 0.000000 0.000000 0.000000 10.000000 
Rope4_Seg09 0.000000 0.000000 0.000000 0.000000 0.000000 0.000000 10.000000 
L_rear_hand01 0.000000 0.000000 0.000000 0.000000 0.000000 0.000000 10.000000 
L_rear_hand02 0.000000 0.000000 0.000000 0.000000 0.000000 0.000000 10.000000 
L_rear_hand03 0.000000 0.000000 0.000000 0.000000 0.000000 0.000000 10.000000 
#Beginning of Data. Separated by tabs
#Fr	Tx	Ty	Tz	Rx	Ry	Rz	SF
[MASTER]
1 0.000003 -0.000096 -0.000072 0.001660 0.001660 0.001660 0.000120
2 0.000003 -0.000097 -18.907846 0.001660 0.001660 0.001660 18.907846
[root]
1 -16.502296 -33.081390 1478.707886 -65.894356 -12.339475 -81.177132 1479.169922
2 -16.502296 -32.919674 1477.876465 -66.287422 -12.351930 -81.324677 1478.335083
[chest]
1 -84.512650 -34.090519 0.000000 -153.108154 1.866854 138.579483 91.129311
2 -84.512650 -34.090519 0.000000 -144.464813 3.205354 139.945404 91.129311
[L_mid_tent01]
1 27.299307 22.178345 -249.918488 -167.022537 41.908432 -71.675575 252.381424
2 27.299305 22.178358 -249.918488 -166.017715 41.494740 -71.172890 252.381424
[R_mid_tent01]
1 23.228794 24.509907 226.238495 -138.786179 -81.690567 26.823822 228.744751
2 23.228794 24.509907 226.238495 -131.863083 -81.749168 20.084105 228.744751
[spine01]
1 -0.361383 -0.195265 0.000000 0.002062 0.001122 32.879829 0.410763
2 -0.361383 -0.195265 0.000000 0.002062 0.001122 32.879829 0.410763
[Bip01_Neck]
1 165.484543 71.581718 0.000119 176.643677 -1.657967 43.431911 180.302734
2 165.484543 71.581718 0.000119 176.643677 -1.657967 43.431915 180.302734
[L_humerus]
1 -13.983130 -135.272980 -120.471481 171.373917 65.659119 -97.124947 181.680161
2 -13.983130 -135.272980 -120.471481 170.655045 65.924850 -98.311256 181.680161
[R_humerus]
1 -13.983309 -135.273102 125.287651 179.165009 -70.288330 -78.667343 184.909012
2 -13.983309 -135.273102 125.287651 179.765579 -70.574883 -79.855728 184.909012
[weapon_bone]
1 235.964890 -300.705902 0.000000 0.000000 -89.951546 -128.212341 382.234833
2 235.964890 -300.705902 0.000000 0.000000 -89.951546 -128.212341 382.234833
[Bip01_Head]
1 213.345337 185.936127 8.929272 22.393787 5.060511 -43.854626 283.139893
2 213.343750 185.944931 8.815633 23.109833 5.142610 -43.854790 283.140930
[eye_left_bone]
1 -24.626970 125.451866 -64.772606 0.000000 -90.000000 -99.840431 143.318359
2 -24.626970 125.451866 -64.772606 0.000000 -90.000000 -99.840431 143.318359
[eye_right_bone]
1 -24.626970 125.451866 64.327362 0.000000 -89.965736 80.156380 143.117676
2 -24.626970 125.451866 64.327362 0.000000 -89.965736 80.156380 143.117676
[L_forearm]
1 322.776093 0.000000 -0.000119 0.000286 -0.002330 -103.982491 322.776093
2 322.776093 0.000000 -0.000119 0.000279 -0.002331 -103.652222 322.776093
[L_front_hand]
1 241.149185 -0.042021 -3.300071 -178.413071 -1.620481 -35.784008 241.171753
2 241.149185 -0.042021 -3.300071 -178.420425 -1.627690 -35.542473 241.171753
[L_weapon_bone]
1 156.183838 0.000000 0.000000 0.000014 0.000007 0.000001 156.183838
2 156.183838 0.000000 0.000000 0.000014 0.000007 0.000001 156.183838
[L_front_hand01_01]
1 86.095154 20.947098 -0.655860 -0.314009 -0.508446 69.409256 88.609184
2 86.095154 20.947098 -0.655860 -0.321086 -0.505796 70.180763 88.609184
[L_front_hand02_01]
1 86.935165 -11.437475 24.513514 145.957626 -56.902191 -51.461929 91.046425
2 86.935165 -11.437475 24.513514 146.960205 -57.330383 -52.655548 91.046425
[L_front_hand03_01]
1 86.637497 -14.123976 -20.424902 -146.049988 55.121513 -53.295567 90.126129
2 86.637497 -14.123976 -20.424902 -146.981247 55.547363 -54.427380 90.126129
[L_front_hand01_02]
1 71.020905 -0.000179 0.000030 0.000318 -0.002326 -105.574532 71.020905
2 71.020905 -0.000179 0.000030 0.000319 -0.002325 -105.627251 71.020905
[L_front_hand02_02]
1 71.020927 -0.000119 0.000060 0.000318 -0.002326 -105.574532 71.020927
2 71.020927 -0.000119 0.000060 0.000319 -0.002325 -105.627251 71.020927
[L_front_hand03_02]
1 71.020905 -0.000060 0.000060 0.000318 -0.002326 -105.574532 71.020905
2 71.020905 -0.000060 0.000060 0.000319 -0.002325 -105.627251 71.020905
[R_forearm]
1 322.776428 -0.000060 0.000030 0.206840 0.039890 -101.679214 322.776428
2 322.776428 -0.000060 0.000030 0.208863 0.037767 -101.372391 322.776428
[R_front_hand]
1 238.847015 -0.006795 2.210259 -0.777453 -10.934718 -36.205059 238.857239
2 238.847015 -0.006795 2.210259 -0.831387 -10.931029 -35.920444 238.857239
[R_weapon_bone]
1 155.664093 0.002503 -0.000030 0.003487 0.001180 -90.988930 155.664078
2 155.664093 0.002503 -0.000030 0.003487 0.001180 -90.988930 155.664078
[R_front_hand01_01]
1 87.624611 14.231146 22.918642 -146.552551 -57.155426 52.280727 91.683487
2 87.624611 14.231146 22.918642 -148.462082 -57.932716 54.541962 91.683487
[R_front_hand02_01]
1 89.356956 14.367283 -19.491137 146.998062 55.533039 54.685249 92.579636
2 89.356956 14.367283 -19.491137 148.801498 56.299915 56.856495 92.579636
[R_front_hand03_01]
1 87.286232 -22.307278 -0.143439 0.117983 -0.440813 -70.109169 90.091743
2 87.286232 -22.307278 -0.143439 0.131531 -0.433516 -71.547462 90.091743
[R_front_hand01_02]
1 71.020905 0.000060 0.000119 0.002323 -0.000334 106.381714 71.020905
2 71.020905 0.000060 0.000119 0.002323 -0.000334 106.381721 71.020905
[R_front_hand02_02]
1 71.020844 -0.000030 -0.000119 0.002323 -0.000334 106.381714 71.020836
2 71.020844 -0.000030 -0.000119 0.002323 -0.000334 106.381721 71.020836
[R_front_hand03_02]
1 71.020905 0.000000 0.000030 0.002323 -0.000334 106.381714 71.020905
2 71.020905 0.000000 0.000030 0.002323 -0.000334 106.381721 71.020905
[null_rope01_connect]
1 328.732483 0.000000 -0.000238 -163.793335 20.160751 -157.101974 328.732483
2 328.732483 0.000000 -0.000238 -162.978271 20.613913 -156.488495 328.732483
[Rope1_Seg01]
1 0.000000 -0.000057 0.000000 -3.797215 2.701250 -159.110931 0.000057
2 0.000002 -0.000057 0.000007 -3.089755 4.331616 -159.857574 0.000057
[Rope1_Seg02]
1 139.999863 -0.000179 0.000000 -11.129412 -8.883678 -10.397944 139.999863
2 139.999863 -0.000179 0.000000 -10.671965 -9.207409 -10.186309 139.999863
[Rope1_Seg03]
1 139.999924 0.000060 -0.000060 -9.346274 -4.918159 -17.655212 139.999924
2 139.999924 0.000060 -0.000060 -9.049570 -5.501696 -16.873209 139.999924
[Rope1_Seg04]
1 139.999924 -0.000060 -0.000119 -6.301168 -6.328482 -19.310982 139.999924
2 139.999924 -0.000060 -0.000119 -6.099786 -6.112373 -18.092659 139.999924
[Rope1_Seg05]
1 139.999832 0.000119 -0.000060 -5.935854 -28.070728 -22.812626 139.999832
2 139.999832 0.000119 -0.000060 -6.542103 -28.036285 -22.291691 139.999832
[Rope1_Seg06]
1 139.999954 0.000119 -0.000060 -3.675808 -11.302212 -13.040716 139.999954
2 139.999954 0.000119 -0.000060 -4.163555 -12.297658 -13.797161 139.999954
[Rope1_Seg07]
1 139.999985 0.000060 0.000000 -1.517625 -3.993994 -6.169527 139.999985
2 139.999985 0.000060 0.000000 -1.698483 -4.202407 -6.482893 139.999985
[Rope1_Seg09]
1 121.602913 0.000119 -0.000089 -89.793175 -1.359789 0.847147 121.602913
2 121.602913 0.000119 -0.000089 -89.793175 -1.359789 0.847147 121.602913
[L_mid_hand01]
1 103.859421 1.038730 8.195221 130.544373 -67.584534 -38.866943 104.187431
2 103.859421 1.038730 8.195221 130.544373 -67.584534 -38.866943 104.187431
[L_mid_hand02]
1 105.572853 -4.139662 -10.864139 -168.923172 43.409309 -73.498886 106.211075
2 105.572853 -4.139662 -10.864139 -168.923172 43.409309 -73.498886 106.211075
[L_mid_hand03]
1 104.641464 17.579376 -3.913581 -6.012627 17.808174 74.893669 106.179977
2 104.641464 17.579376 -3.913581 -6.012627 17.808174 74.893669 106.179977
[null_rope02_connect]
1 328.732849 0.000179 -0.000119 -147.679077 -21.034315 -6.768864 328.732849
2 328.732849 0.000179 -0.000119 -147.781647 -21.336201 -7.350997 328.732849
[Rope2_Seg01]
1 -0.000076 0.000098 0.000000 86.299011 29.108736 24.433090 0.000124
2 -0.000072 0.000098 0.000000 85.455238 30.021488 23.181795 0.000122
[Rope2_Seg02]
1 139.999741 -0.000060 -0.000119 2.588686 4.089291 11.667295 139.999756
2 139.999741 -0.000060 -0.000119 2.620492 4.142575 11.316711 139.999756
[Rope2_Seg03]
1 140.000107 0.000030 0.000000 6.783939 9.577393 24.077127 140.000107
2 140.000107 0.000030 0.000000 6.847550 9.784377 23.799770 140.000107
[Rope2_Seg04]
1 139.999802 0.000000 -0.000060 9.382835 16.698486 31.133543 139.999802
2 139.999802 0.000000 -0.000060 9.804749 17.413670 32.201164 139.999802
[Rope2_Seg05]
1 139.999985 -0.000060 0.000119 3.709604 8.100384 21.730507 139.999985
2 139.999985 -0.000060 0.000119 3.407578 8.658781 21.030176 139.999985
[Rope2_Seg06]
1 139.999893 -0.000030 -0.000119 2.855581 3.938252 17.482059 139.999893
2 139.999893 -0.000030 -0.000119 2.411926 4.355011 16.940676 139.999893
[Rope2_Seg07]
1 139.999893 0.000060 -0.000060 1.801341 3.525761 9.102715 139.999893
2 139.999893 0.000060 -0.000060 1.570778 3.824229 9.353408 139.999893
[Rope2_Seg09]
1 121.338966 0.000089 -0.000060 33.793236 -1.359788 -0.847141 121.338966
2 121.338966 0.000089 -0.000060 33.793236 -1.359788 -0.847141 121.338966
[R_mid_hand01]
1 104.680779 11.144459 -10.335981 -16.212063 45.237247 70.462852 105.778534
2 104.680779 11.144459 -10.335981 -16.212063 45.237240 70.462852 105.778534
[R_mid_hand02]
1 104.070427 2.443552 8.231699 49.067368 -67.749771 39.286453 104.424065
2 104.070427 2.443552 8.231699 49.067368 -67.749771 39.286453 104.424065
[R_mid_hand03]
1 106.028137 -11.221827 -5.996406 -177.101105 15.551026 -76.585571 106.788818
2 106.028137 -11.221827 -5.996406 -177.101105 15.551026 -76.585571 106.788818
[spine02]
1 129.756927 0.001550 0.000119 -1.167498 -4.324996 8.730483 129.756927
2 129.756927 0.001550 0.000119 -1.171867 -4.310443 8.808646 129.756927
[spine03]
1 78.613930 0.084457 -4.898949 0.944673 4.980425 3.008443 78.766472
2 78.613930 0.084397 -4.898950 0.940968 4.955104 2.961496 78.766472
[pelvis]
1 169.435242 0.051022 0.000000 0.021091 0.133549 -13.182910 169.435257
2 169.435242 0.051022 0.000000 0.022117 0.123744 -13.284156 169.435257
[null_rope03_connect]
1 -1.257226 -2.466202 137.391083 29.503262 -63.629715 39.650734 137.418976
2 -1.257226 -2.466202 137.391083 29.567606 -64.059578 39.739937 137.418976
[null_rope04_connect]
1 -1.259640 -2.480268 -137.844437 29.503262 -63.629715 39.650734 137.872513
2 -1.259640 -2.480268 -137.844437 29.567606 -64.059578 39.739937 137.872513
[Rope3_Seg01]
1 -0.000000 0.000000 -0.000153 15.403938 -1.027297 -55.487411 0.000153
2 -0.000001 0.000001 -0.000142 14.902315 -2.266382 -55.163364 0.000142
[Rope3_Seg02]
1 139.999924 -0.000119 0.000060 -2.268748 -5.417216 2.555577 139.999924
2 139.999924 -0.000119 0.000060 -2.233159 -5.495206 2.396973 139.999924
[Rope3_Seg03]
1 139.999924 -0.000119 0.000119 -3.584344 -9.075265 3.895390 139.999924
2 139.999924 -0.000119 0.000119 -3.411880 -9.025218 3.562109 139.999924
[Rope3_Seg04]
1 139.999924 0.000119 0.000000 -6.065223 -17.501879 6.670894 139.999924
2 139.999924 0.000119 0.000000 -5.472172 -16.874697 5.906137 139.999924
[Rope3_Seg05]
1 139.999924 -0.000238 0.000060 -7.368035 -32.681221 11.049861 139.999924
2 139.999924 -0.000238 0.000060 -6.423058 -31.538874 9.960863 139.999924
[Rope3_Seg06]
1 139.999893 -0.000119 -0.000060 0.761892 -16.693764 1.769504 139.999893
2 139.999893 -0.000119 -0.000060 0.910672 -15.897332 1.322764 139.999893
[Rope3_Seg07]
1 139.999771 0.000060 -0.000119 0.682465 -2.782259 -2.765838 139.999771
2 139.999771 0.000060 -0.000119 0.459148 -1.459643 -3.283920 139.999771
[Rope3_Seg08]
1 139.999985 -0.000060 0.000000 1.273162 -4.636010 -0.718135 139.999985
2 139.999985 -0.000060 0.000000 1.121107 -3.921089 -1.041344 139.999985
[Rope3_Seg09]
1 90.185997 -0.000179 -0.000060 89.793228 -1.359877 -0.847183 90.185997
2 90.185997 -0.000179 -0.000060 89.793228 -1.359877 -0.847183 90.185997
[R_rear_hand01]
1 103.366196 -6.073594 -10.757982 -177.714203 24.565960 -73.910950 104.101845
2 103.366196 -6.073594 -10.757982 -177.714203 24.565960 -73.910950 104.101845
[R_rear_hand02]
1 100.509819 12.039542 -7.992327 -12.874829 36.868488 72.167213 101.543350
2 100.509819 12.039542 -7.992327 -12.874831 36.868481 72.167213 101.543350
[R_rear_hand03]
1 101.539970 5.215704 5.435467 71.484581 -71.816628 21.513813 101.819031
2 101.539970 5.215704 5.435467 71.484581 -71.816628 21.513813 101.819031
[Rope4_Seg01]
1 0.000000 0.000000 0.000000 -97.445152 -15.095197 -111.773102 0.000000
2 0.000000 0.000000 0.000000 -97.335800 -15.406107 -111.888748 0.000000
[Rope4_Seg02]
1 139.999985 0.000060 0.000119 0.428044 2.255378 -6.523069 139.999985
2 139.999985 0.000060 0.000119 0.432487 2.286290 -6.711188 139.999985
[Rope4_Seg03]
1 139.999924 0.000000 -0.000238 0.351772 2.804718 -8.377753 139.999924
2 139.999924 0.000000 -0.000238 0.347025 2.815084 -8.541560 139.999924
[Rope4_Seg04]
1 139.999985 0.000000 0.000119 0.141455 3.973373 -10.409859 139.999985
2 139.999985 0.000000 0.000119 0.122066 3.971567 -10.400591 139.999985
[Rope4_Seg05]
1 139.999802 -0.000060 -0.000119 -0.042159 4.962610 -10.962045 139.999802
2 139.999802 -0.000060 -0.000119 -0.041556 4.717976 -10.672554 139.999802
[Rope4_Seg06]
1 139.999924 0.000000 0.000060 -0.085703 1.345159 -11.637553 139.999924
2 139.999924 0.000000 0.000060 -0.114996 1.193023 -11.642552 139.999924
[Rope4_Seg07]
1 139.999802 0.000000 0.000000 -1.235549 -2.407455 -16.923391 139.999802
2 139.999802 0.000000 0.000000 -1.327662 -2.256420 -16.942909 139.999802
[Rope4_Seg08]
1 139.999924 0.000000 0.000119 -5.029776 -0.782675 -15.376944 139.999924
2 139.999924 0.000000 0.000119 -4.931169 -0.585173 -14.821086 139.999924
[Rope4_Seg09]
1 90.185791 0.000060 0.000060 -135.617828 2.228885 0.850567 90.185791
2 90.185791 0.000060 0.000060 -135.617828 2.228885 0.850567 90.185791
[L_rear_hand01]
1 101.696655 -8.392275 -7.654577 -12.874829 -36.868488 107.832764 102.329041
2 101.696655 -8.392275 -7.654577 -12.874831 -36.868481 107.832764 102.329041
[L_rear_hand02]
1 102.726799 -1.568258 5.773216 71.484581 71.816628 158.486160 102.900848
2 102.726799 -1.568258 5.773216 71.484581 71.816628 158.486160 102.900848
[L_rear_hand03]
1 104.552910 9.721220 -10.420293 -177.714203 -24.565960 -106.089035 105.519653
2 104.552910 9.721220 -10.420293 -177.714203 -24.565960 -106.089035 105.519653
